<?xml version="1.0" standalone="no"?>
<!DOCTYPE svg PUBLIC "-//W3C//DTD SVG 20010904//EN"
 "http://www.w3.org/TR/2001/REC-SVG-20010904/DTD/svg10.dtd">
<svg version="1.0" xmlns="http://www.w3.org/2000/svg"
 width="72.000000pt" height="72.000000pt" viewBox="0 0 72.000000 72.000000"
 preserveAspectRatio="xMidYMid meet">

<g transform="translate(0.000000,72.000000) scale(0.100000,-0.100000)"
fill="#000000" stroke="none">
<path d="M170 563 c0 -62 2 -113 4 -113 25 0 36 16 36 56 0 24 3 44 8 44 4 0
20 -17 36 -37 l30 -36 31 36 c37 42 45 45 45 16 0 -24 -6 -26 122 28 48 20 86
38 84 40 -2 2 -40 -10 -84 -26 l-81 -29 -3 66 -3 66 -50 -61 c-45 -55 -74 -77
-75 -55 -1 4 -23 32 -50 62 l-50 55 0 -112z"/>
<path d="M308 467 c-128 -55 -151 -72 -44 -32 36 14 69 25 71 25 3 0 -4 -18
-15 -40 -11 -21 -20 -44 -20 -50 0 -18 39 -11 50 10 8 16 21 20 60 20 39 0 52
-4 60 -20 11 -21 50 -28 50 -9 0 19 -75 149 -85 148 -5 0 -63 -24 -127 -52z
m120 -2 c10 -21 9 -27 -3 -31 -8 -4 -22 -4 -30 0 -12 4 -13 10 -3 31 6 14 14
25 18 25 4 0 12 -11 18 -25z"/>
</g>
</svg>
